<mxfile host="app.diagrams.net" agent="Mozilla/5.0 (Windows NT 10.0; Win64; x64) AppleWebKit/537.36 (KHTML, like Gecko) Chrome/136.0.0.0 Safari/537.36 Edg/136.0.0.0" version="26.3.0">
  <diagram name="第 1 页" id="6QvtWC9IOYnXS255AeZI">
    <mxGraphModel dx="1970" dy="1797" grid="1" gridSize="10" guides="1" tooltips="1" connect="1" arrows="1" fold="1" page="1" pageScale="1" pageWidth="827" pageHeight="1169" math="0" shadow="0">
      <root>
        <mxCell id="0" />
        <mxCell id="1" parent="0" />
        <mxCell id="jar3jXDrxeQpcbcYHg8D-2" value="" style="rounded=0;whiteSpace=wrap;html=1;allowArrows=0;connectable=0;movable=0;resizable=0;rotatable=0;deletable=0;editable=0;locked=1;" parent="1" vertex="1">
          <mxGeometry x="-200" width="1160" height="720" as="geometry" />
        </mxCell>
        <mxCell id="jar3jXDrxeQpcbcYHg8D-5" value="&lt;font style=&quot;font-size: 22px;&quot;&gt;CPU&lt;/font&gt;" style="rounded=0;whiteSpace=wrap;html=1;allowArrows=0;connectable=0;movable=0;resizable=0;rotatable=0;deletable=0;editable=0;locked=1;" parent="1" vertex="1">
          <mxGeometry x="240" y="30" width="680" height="370" as="geometry" />
        </mxCell>
        <mxCell id="jar3jXDrxeQpcbcYHg8D-6" value="&lt;font style=&quot;font-size: 22px;&quot;&gt;Accelerator&lt;/font&gt;" style="rounded=0;whiteSpace=wrap;html=1;allowArrows=0;connectable=1;movable=1;resizable=1;rotatable=1;deletable=1;editable=1;locked=0;" parent="1" vertex="1">
          <mxGeometry x="240" y="520" width="680" height="160" as="geometry" />
        </mxCell>
        <mxCell id="jar3jXDrxeQpcbcYHg8D-7" value="&lt;font style=&quot;font-size: 22px;&quot;&gt;Testbed&lt;/font&gt;" style="text;html=1;align=center;verticalAlign=middle;resizable=0;points=[];autosize=1;strokeColor=none;fillColor=none;fontFamily=Helvetica;fontSize=12;fontColor=default;allowArrows=0;connectable=0;" parent="1" vertex="1">
          <mxGeometry x="-200" y="-40" width="100" height="40" as="geometry" />
        </mxCell>
        <mxCell id="jar3jXDrxeQpcbcYHg8D-8" value="&lt;font style=&quot;font-size: 22px;&quot;&gt;Testbench&lt;/font&gt;" style="rounded=0;whiteSpace=wrap;html=1;allowArrows=0;connectable=0;movable=0;resizable=0;rotatable=0;deletable=0;editable=0;locked=1;" parent="1" vertex="1">
          <mxGeometry x="-160" y="30" width="280" height="650" as="geometry" />
        </mxCell>
        <mxCell id="jar3jXDrxeQpcbcYHg8D-17" value="" style="endArrow=classic;html=1;rounded=0;fontFamily=Helvetica;fontSize=12;fontColor=default;autosize=1;resizable=0;" parent="1" edge="1">
          <mxGeometry width="50" height="50" relative="1" as="geometry">
            <mxPoint x="850" y="520" as="sourcePoint" />
            <mxPoint x="850" y="400" as="targetPoint" />
          </mxGeometry>
        </mxCell>
        <mxCell id="jar3jXDrxeQpcbcYHg8D-22" value="&lt;font style=&quot;font-size: 22px;&quot;&gt;clk_i&lt;/font&gt;" style="text;html=1;align=center;verticalAlign=middle;resizable=0;points=[];autosize=1;strokeColor=none;fillColor=none;fontFamily=Helvetica;fontSize=12;fontColor=default;allowArrows=0;connectable=0;" parent="1" vertex="1">
          <mxGeometry x="50" y="40" width="70" height="40" as="geometry" />
        </mxCell>
        <mxCell id="jar3jXDrxeQpcbcYHg8D-23" value="" style="endArrow=classic;html=1;rounded=0;fontFamily=Helvetica;fontSize=12;fontColor=default;autosize=1;resizable=0;" parent="1" edge="1">
          <mxGeometry width="50" height="50" relative="1" as="geometry">
            <mxPoint x="414" y="400" as="sourcePoint" />
            <mxPoint x="414" y="520" as="targetPoint" />
          </mxGeometry>
        </mxCell>
        <mxCell id="jar3jXDrxeQpcbcYHg8D-24" value="&lt;font style=&quot;font-size: 22px;&quot;&gt;Rm[15:0]&lt;/font&gt;" style="text;html=1;align=center;verticalAlign=middle;resizable=0;points=[];autosize=1;strokeColor=none;fillColor=none;fontFamily=Helvetica;fontSize=12;fontColor=default;allowArrows=0;connectable=0;" parent="1" vertex="1">
          <mxGeometry x="360" y="360" width="110" height="40" as="geometry" />
        </mxCell>
        <mxCell id="jar3jXDrxeQpcbcYHg8D-25" value="" style="endArrow=classic;html=1;rounded=0;fontFamily=Helvetica;fontSize=12;fontColor=default;autosize=1;resizable=0;" parent="1" edge="1">
          <mxGeometry width="50" height="50" relative="1" as="geometry">
            <mxPoint x="514.64" y="400" as="sourcePoint" />
            <mxPoint x="514.64" y="520" as="targetPoint" />
          </mxGeometry>
        </mxCell>
        <mxCell id="jar3jXDrxeQpcbcYHg8D-28" value="&lt;font style=&quot;font-size: 22px;&quot;&gt;Rn[15:0]&lt;/font&gt;" style="text;html=1;align=center;verticalAlign=middle;resizable=0;points=[];autosize=1;strokeColor=none;fillColor=none;fontFamily=Helvetica;fontSize=12;fontColor=default;allowArrows=0;connectable=0;" parent="1" vertex="1">
          <mxGeometry x="460" y="360" width="110" height="40" as="geometry" />
        </mxCell>
        <mxCell id="jar3jXDrxeQpcbcYHg8D-34" value="&lt;font style=&quot;font-size: 22px;&quot;&gt;Answer[3:0]&lt;/font&gt;" style="text;html=1;align=center;verticalAlign=middle;resizable=0;points=[];autosize=1;strokeColor=none;fillColor=none;fontFamily=Helvetica;fontSize=12;fontColor=default;allowArrows=0;connectable=0;" parent="1" vertex="1">
          <mxGeometry x="780" y="520" width="140" height="40" as="geometry" />
        </mxCell>
        <mxCell id="jar3jXDrxeQpcbcYHg8D-35" value="" style="endArrow=classic;html=1;rounded=0;fontFamily=Helvetica;fontSize=12;fontColor=default;autosize=1;resizable=0;" parent="1" edge="1">
          <mxGeometry width="50" height="50" relative="1" as="geometry">
            <mxPoint x="120" y="60" as="sourcePoint" />
            <mxPoint x="240" y="60" as="targetPoint" />
          </mxGeometry>
        </mxCell>
        <mxCell id="jar3jXDrxeQpcbcYHg8D-36" value="" style="endArrow=classic;html=1;rounded=0;fontFamily=Helvetica;fontSize=12;fontColor=default;autosize=1;resizable=0;" parent="1" edge="1">
          <mxGeometry width="50" height="50" relative="1" as="geometry">
            <mxPoint x="120" y="100" as="sourcePoint" />
            <mxPoint x="240" y="100" as="targetPoint" />
          </mxGeometry>
        </mxCell>
        <mxCell id="jar3jXDrxeQpcbcYHg8D-37" value="&lt;font style=&quot;font-size: 22px;&quot;&gt;rst_n&lt;/font&gt;" style="text;html=1;align=center;verticalAlign=middle;resizable=0;points=[];autosize=1;strokeColor=none;fillColor=none;fontFamily=Helvetica;fontSize=12;fontColor=default;allowArrows=0;connectable=0;" parent="1" vertex="1">
          <mxGeometry x="50" y="80" width="70" height="40" as="geometry" />
        </mxCell>
        <mxCell id="jar3jXDrxeQpcbcYHg8D-38" value="&lt;font style=&quot;font-size: 22px;&quot;&gt;Out_R[15:0]&lt;/font&gt;" style="text;html=1;align=center;verticalAlign=middle;resizable=0;points=[];autosize=1;strokeColor=none;fillColor=none;fontFamily=Helvetica;fontSize=12;fontColor=default;allowArrows=0;connectable=0;" parent="1" vertex="1">
          <mxGeometry x="240" y="120" width="140" height="40" as="geometry" />
        </mxCell>
        <mxCell id="jar3jXDrxeQpcbcYHg8D-39" value="&lt;font style=&quot;font-size: 22px;&quot;&gt;flag_done&lt;/font&gt;" style="text;html=1;align=center;verticalAlign=middle;resizable=0;points=[];autosize=1;strokeColor=none;fillColor=none;fontFamily=Helvetica;fontSize=12;fontColor=default;allowArrows=0;connectable=0;" parent="1" vertex="1">
          <mxGeometry y="160" width="120" height="40" as="geometry" />
        </mxCell>
        <mxCell id="jar3jXDrxeQpcbcYHg8D-40" value="&lt;font style=&quot;font-size: 22px;&quot;&gt;ex_iwe&lt;/font&gt;" style="text;html=1;align=center;verticalAlign=middle;resizable=0;points=[];autosize=1;strokeColor=none;fillColor=none;fontFamily=Helvetica;fontSize=12;fontColor=default;allowArrows=0;connectable=0;" parent="1" vertex="1">
          <mxGeometry x="30" y="390" width="90" height="40" as="geometry" />
        </mxCell>
        <mxCell id="jar3jXDrxeQpcbcYHg8D-41" value="&lt;font style=&quot;font-size: 22px;&quot;&gt;ex_iaddr[15:0]&lt;/font&gt;" style="text;html=1;align=center;verticalAlign=middle;resizable=1;points=[];autosize=1;fontFamily=Helvetica;fontSize=12;allowArrows=0;connectable=1;movable=1;rotatable=1;deletable=1;editable=1;locked=0;" parent="1" vertex="1">
          <mxGeometry x="-40" y="430" width="160" height="40" as="geometry" />
        </mxCell>
        <mxCell id="jar3jXDrxeQpcbcYHg8D-43" value="&lt;font style=&quot;font-size: 22px;&quot;&gt;ex_idata[15:0]&lt;/font&gt;" style="text;html=1;align=center;verticalAlign=middle;resizable=0;points=[];autosize=1;strokeColor=none;fillColor=none;fontFamily=Helvetica;fontSize=12;fontColor=default;allowArrows=0;connectable=0;" parent="1" vertex="1">
          <mxGeometry x="-40" y="470" width="160" height="40" as="geometry" />
        </mxCell>
        <mxCell id="jar3jXDrxeQpcbcYHg8D-44" value="&lt;font style=&quot;font-size: 22px;&quot;&gt;ex_dwe&lt;/font&gt;" style="text;html=1;align=center;verticalAlign=middle;resizable=0;points=[];autosize=1;strokeColor=none;fillColor=none;fontFamily=Helvetica;fontSize=12;fontColor=default;allowArrows=0;connectable=0;" parent="1" vertex="1">
          <mxGeometry x="20" y="560" width="100" height="40" as="geometry" />
        </mxCell>
        <mxCell id="jar3jXDrxeQpcbcYHg8D-45" value="&lt;font style=&quot;font-size: 22px;&quot;&gt;ex_daddr[7:0]&lt;/font&gt;" style="text;html=1;align=center;verticalAlign=middle;resizable=0;points=[];autosize=1;strokeColor=none;fillColor=none;fontFamily=Helvetica;fontSize=12;fontColor=default;allowArrows=0;connectable=0;" parent="1" vertex="1">
          <mxGeometry x="-40" y="600" width="160" height="40" as="geometry" />
        </mxCell>
        <mxCell id="jar3jXDrxeQpcbcYHg8D-46" value="&lt;font style=&quot;font-size: 22px;&quot;&gt;ex_ddata[15:0]&lt;/font&gt;" style="text;html=1;align=center;verticalAlign=middle;resizable=0;points=[];autosize=1;strokeColor=none;fillColor=none;fontFamily=Helvetica;fontSize=12;fontColor=default;allowArrows=0;connectable=0;" parent="1" vertex="1">
          <mxGeometry x="-50" y="640" width="170" height="40" as="geometry" />
        </mxCell>
        <mxCell id="jar3jXDrxeQpcbcYHg8D-47" value="" style="endArrow=none;html=1;rounded=0;fontFamily=Helvetica;fontSize=12;fontColor=default;autosize=1;resizable=0;startArrow=classic;startFill=1;" parent="1" edge="1">
          <mxGeometry width="50" height="50" relative="1" as="geometry">
            <mxPoint x="120" y="140" as="sourcePoint" />
            <mxPoint x="240" y="140" as="targetPoint" />
          </mxGeometry>
        </mxCell>
        <mxCell id="jar3jXDrxeQpcbcYHg8D-48" value="" style="endArrow=classic;html=1;rounded=0;fontFamily=Helvetica;fontSize=12;fontColor=default;autosize=1;resizable=0;edgeStyle=orthogonalEdgeStyle;" parent="1" edge="1">
          <mxGeometry width="50" height="50" relative="1" as="geometry">
            <mxPoint x="120" y="180" as="sourcePoint" />
            <mxPoint x="240" y="180" as="targetPoint" />
          </mxGeometry>
        </mxCell>
        <mxCell id="jar3jXDrxeQpcbcYHg8D-49" value="" style="endArrow=classic;html=1;rounded=0;fontFamily=Helvetica;fontSize=12;fontColor=default;autosize=1;resizable=0;edgeStyle=orthogonalEdgeStyle;" parent="1" edge="1">
          <mxGeometry width="50" height="50" relative="1" as="geometry">
            <mxPoint x="120" y="450" as="sourcePoint" />
            <mxPoint x="240" y="230" as="targetPoint" />
            <Array as="points">
              <mxPoint x="170" y="450" />
              <mxPoint x="170" y="230" />
            </Array>
          </mxGeometry>
        </mxCell>
        <mxCell id="jar3jXDrxeQpcbcYHg8D-50" value="" style="endArrow=classic;html=1;rounded=0;fontFamily=Helvetica;fontSize=12;fontColor=default;autosize=1;resizable=0;edgeStyle=orthogonalEdgeStyle;" parent="1" edge="1">
          <mxGeometry width="50" height="50" relative="1" as="geometry">
            <mxPoint x="120" y="410" as="sourcePoint" />
            <mxPoint x="240" y="220" as="targetPoint" />
            <Array as="points">
              <mxPoint x="160" y="410" />
              <mxPoint x="160" y="220" />
            </Array>
          </mxGeometry>
        </mxCell>
        <mxCell id="jar3jXDrxeQpcbcYHg8D-53" value="" style="endArrow=classic;html=1;rounded=0;fontFamily=Helvetica;fontSize=12;fontColor=default;autosize=1;resizable=0;edgeStyle=orthogonalEdgeStyle;" parent="1" edge="1">
          <mxGeometry width="50" height="50" relative="1" as="geometry">
            <mxPoint x="120" y="490" as="sourcePoint" />
            <mxPoint x="240" y="240" as="targetPoint" />
            <Array as="points">
              <mxPoint x="180" y="490" />
              <mxPoint x="180" y="240" />
            </Array>
          </mxGeometry>
        </mxCell>
        <mxCell id="jar3jXDrxeQpcbcYHg8D-54" value="" style="endArrow=classic;html=1;rounded=0;fontFamily=Helvetica;fontSize=12;fontColor=default;autosize=1;resizable=0;edgeStyle=orthogonalEdgeStyle;" parent="1" edge="1">
          <mxGeometry width="50" height="50" relative="1" as="geometry">
            <mxPoint x="120" y="620" as="sourcePoint" />
            <mxPoint x="240" y="310" as="targetPoint" />
            <Array as="points">
              <mxPoint x="210" y="620" />
              <mxPoint x="210" y="310" />
            </Array>
          </mxGeometry>
        </mxCell>
        <mxCell id="jar3jXDrxeQpcbcYHg8D-55" value="" style="endArrow=classic;html=1;rounded=0;fontFamily=Helvetica;fontSize=12;fontColor=default;autosize=1;resizable=0;edgeStyle=orthogonalEdgeStyle;" parent="1" edge="1">
          <mxGeometry width="50" height="50" relative="1" as="geometry">
            <mxPoint x="120" y="580" as="sourcePoint" />
            <mxPoint x="240" y="300" as="targetPoint" />
            <Array as="points">
              <mxPoint x="200" y="580" />
              <mxPoint x="200" y="300" />
            </Array>
          </mxGeometry>
        </mxCell>
        <mxCell id="jar3jXDrxeQpcbcYHg8D-56" value="" style="endArrow=classic;html=1;rounded=0;fontFamily=Helvetica;fontSize=12;fontColor=default;autosize=1;resizable=0;edgeStyle=orthogonalEdgeStyle;" parent="1" edge="1">
          <mxGeometry width="50" height="50" relative="1" as="geometry">
            <mxPoint x="120" y="660" as="sourcePoint" />
            <mxPoint x="240" y="320" as="targetPoint" />
            <Array as="points">
              <mxPoint x="220" y="660" />
              <mxPoint x="220" y="320" />
            </Array>
          </mxGeometry>
        </mxCell>
        <mxCell id="jar3jXDrxeQpcbcYHg8D-57" value="" style="endArrow=classic;html=1;rounded=0;fontFamily=Helvetica;fontSize=12;fontColor=default;autosize=1;resizable=0;" parent="1" edge="1">
          <mxGeometry width="50" height="50" relative="1" as="geometry">
            <mxPoint x="274.64" y="400" as="sourcePoint" />
            <mxPoint x="274.64" y="520" as="targetPoint" />
          </mxGeometry>
        </mxCell>
        <mxCell id="jar3jXDrxeQpcbcYHg8D-58" value="" style="endArrow=classic;html=1;rounded=0;fontFamily=Helvetica;fontSize=12;fontColor=default;autosize=1;resizable=0;" parent="1" edge="1">
          <mxGeometry width="50" height="50" relative="1" as="geometry">
            <mxPoint x="334.64" y="400" as="sourcePoint" />
            <mxPoint x="334.64" y="520" as="targetPoint" />
          </mxGeometry>
        </mxCell>
        <mxCell id="jar3jXDrxeQpcbcYHg8D-59" value="&lt;font style=&quot;font-size: 22px;&quot;&gt;clk_i&lt;/font&gt;" style="text;html=1;align=center;verticalAlign=middle;resizable=0;points=[];autosize=1;strokeColor=none;fillColor=none;fontFamily=Helvetica;fontSize=12;fontColor=default;allowArrows=0;connectable=0;" parent="1" vertex="1">
          <mxGeometry x="240" y="360" width="70" height="40" as="geometry" />
        </mxCell>
        <mxCell id="jar3jXDrxeQpcbcYHg8D-60" value="&lt;font style=&quot;font-size: 22px;&quot;&gt;rst_n&lt;/font&gt;" style="text;html=1;align=center;verticalAlign=middle;resizable=0;points=[];autosize=1;strokeColor=none;fillColor=none;fontFamily=Helvetica;fontSize=12;fontColor=default;allowArrows=0;connectable=0;" parent="1" vertex="1">
          <mxGeometry x="300" y="360" width="70" height="40" as="geometry" />
        </mxCell>
        <mxCell id="jar3jXDrxeQpcbcYHg8D-63" value="" style="endArrow=none;html=1;rounded=0;fontFamily=Helvetica;fontSize=12;fontColor=default;autosize=1;resizable=0;" parent="1" edge="1">
          <mxGeometry width="50" height="50" relative="1" as="geometry">
            <mxPoint x="-160" y="800" as="sourcePoint" />
            <mxPoint x="280" y="800" as="targetPoint" />
          </mxGeometry>
        </mxCell>
        <mxCell id="jar3jXDrxeQpcbcYHg8D-64" value="" style="endArrow=none;html=1;rounded=0;fontFamily=Helvetica;fontSize=12;fontColor=default;autosize=1;resizable=0;" parent="1" edge="1">
          <mxGeometry width="50" height="50" relative="1" as="geometry">
            <mxPoint x="-160" y="840" as="sourcePoint" />
            <mxPoint x="280" y="840" as="targetPoint" />
          </mxGeometry>
        </mxCell>
        <mxCell id="jar3jXDrxeQpcbcYHg8D-65" value="&lt;font style=&quot;font-size: 22px;&quot;&gt;Weight load&lt;/font&gt;" style="text;html=1;align=center;verticalAlign=middle;resizable=0;points=[];autosize=1;strokeColor=none;fillColor=none;fontFamily=Helvetica;fontSize=12;fontColor=default;allowArrows=0;connectable=0;" parent="1" vertex="1">
          <mxGeometry x="-60" y="760" width="140" height="40" as="geometry" />
        </mxCell>
        <mxCell id="jar3jXDrxeQpcbcYHg8D-66" value="&lt;font style=&quot;font-size: 22px;&quot;&gt;Activation input&lt;/font&gt;" style="text;html=1;align=center;verticalAlign=middle;resizable=0;points=[];autosize=1;strokeColor=none;fillColor=none;fontFamily=Helvetica;fontSize=12;fontColor=default;allowArrows=0;connectable=0;" parent="1" vertex="1">
          <mxGeometry x="95" y="760" width="170" height="40" as="geometry" />
        </mxCell>
        <mxCell id="jar3jXDrxeQpcbcYHg8D-67" value="" style="endArrow=none;html=1;rounded=0;fontFamily=Helvetica;fontSize=12;fontColor=default;autosize=1;resizable=0;" parent="1" edge="1">
          <mxGeometry width="50" height="50" relative="1" as="geometry">
            <mxPoint x="-60" y="760" as="sourcePoint" />
            <mxPoint x="-60" y="880" as="targetPoint" />
          </mxGeometry>
        </mxCell>
        <mxCell id="jar3jXDrxeQpcbcYHg8D-69" value="&lt;font style=&quot;font-size: 22px;&quot;&gt;Rn[0]&lt;/font&gt;" style="text;html=1;align=center;verticalAlign=middle;resizable=0;points=[];autosize=1;strokeColor=none;fillColor=none;fontFamily=Helvetica;fontSize=12;fontColor=default;allowArrows=0;connectable=0;" parent="1" vertex="1">
          <mxGeometry x="-155" y="840" width="80" height="40" as="geometry" />
        </mxCell>
        <mxCell id="jar3jXDrxeQpcbcYHg8D-70" value="" style="endArrow=none;html=1;rounded=0;fontFamily=Helvetica;fontSize=12;fontColor=default;autosize=1;resizable=0;" parent="1" edge="1">
          <mxGeometry width="50" height="50" relative="1" as="geometry">
            <mxPoint x="80" y="760" as="sourcePoint" />
            <mxPoint x="80" y="880" as="targetPoint" />
          </mxGeometry>
        </mxCell>
        <mxCell id="jar3jXDrxeQpcbcYHg8D-71" value="&lt;font style=&quot;font-size: 22px;&quot;&gt;0&lt;/font&gt;" style="text;html=1;align=center;verticalAlign=middle;resizable=0;points=[];autosize=1;strokeColor=none;fillColor=none;fontFamily=Helvetica;fontSize=12;fontColor=default;allowArrows=0;connectable=0;" parent="1" vertex="1">
          <mxGeometry x="160" y="800" width="40" height="40" as="geometry" />
        </mxCell>
        <mxCell id="jar3jXDrxeQpcbcYHg8D-72" value="&lt;font style=&quot;font-size: 22px;&quot;&gt;1&lt;/font&gt;" style="text;html=1;align=center;verticalAlign=middle;resizable=0;points=[];autosize=1;strokeColor=none;fillColor=none;fontFamily=Helvetica;fontSize=12;fontColor=default;allowArrows=0;connectable=0;" parent="1" vertex="1">
          <mxGeometry x="160" y="840" width="40" height="40" as="geometry" />
        </mxCell>
        <mxCell id="jar3jXDrxeQpcbcYHg8D-73" value="&lt;font style=&quot;font-size: 22px;&quot;&gt;0&lt;/font&gt;" style="text;html=1;align=center;verticalAlign=middle;resizable=0;points=[];autosize=1;strokeColor=none;fillColor=none;fontFamily=Helvetica;fontSize=12;fontColor=default;allowArrows=0;connectable=0;" parent="1" vertex="1">
          <mxGeometry x="-20" y="840" width="40" height="40" as="geometry" />
        </mxCell>
        <mxCell id="jar3jXDrxeQpcbcYHg8D-74" value="&lt;font style=&quot;font-size: 22px;&quot;&gt;1~127&lt;/font&gt;" style="text;html=1;align=center;verticalAlign=middle;resizable=0;points=[];autosize=1;strokeColor=none;fillColor=none;fontFamily=Helvetica;fontSize=12;fontColor=default;allowArrows=0;connectable=0;" parent="1" vertex="1">
          <mxGeometry x="-40" y="800" width="90" height="40" as="geometry" />
        </mxCell>
        <mxCell id="AZCp2mnbqIVqRQhe4weJ-1" value="&lt;span style=&quot;font-size: 22px;&quot;&gt;W/A&lt;/span&gt;" style="text;html=1;align=center;verticalAlign=middle;resizable=0;points=[];autosize=1;strokeColor=none;fillColor=none;fontFamily=Helvetica;fontSize=12;fontColor=default;allowArrows=0;connectable=0;" vertex="1" parent="1">
          <mxGeometry x="380" y="520" width="70" height="40" as="geometry" />
        </mxCell>
        <mxCell id="AZCp2mnbqIVqRQhe4weJ-2" value="&lt;span style=&quot;font-size: 22px;&quot;&gt;Control&lt;/span&gt;" style="text;html=1;align=center;verticalAlign=middle;resizable=0;points=[];autosize=1;strokeColor=none;fillColor=none;fontFamily=Helvetica;fontSize=12;fontColor=default;allowArrows=0;connectable=0;" vertex="1" parent="1">
          <mxGeometry x="470" y="520" width="90" height="40" as="geometry" />
        </mxCell>
        <mxCell id="AZCp2mnbqIVqRQhe4weJ-3" value="&lt;span style=&quot;font-size: 22px;&quot;&gt;rst_n&lt;/span&gt;" style="text;html=1;align=center;verticalAlign=middle;resizable=0;points=[];autosize=1;strokeColor=none;fillColor=none;fontFamily=Helvetica;fontSize=12;fontColor=default;allowArrows=0;connectable=0;" vertex="1" parent="1">
          <mxGeometry x="300" y="520" width="70" height="40" as="geometry" />
        </mxCell>
        <mxCell id="AZCp2mnbqIVqRQhe4weJ-4" value="&lt;span style=&quot;font-size: 22px;&quot;&gt;clk_i&lt;/span&gt;" style="text;html=1;align=center;verticalAlign=middle;resizable=0;points=[];autosize=1;strokeColor=none;fillColor=none;fontFamily=Helvetica;fontSize=12;fontColor=default;allowArrows=0;connectable=0;" vertex="1" parent="1">
          <mxGeometry x="240" y="520" width="70" height="40" as="geometry" />
        </mxCell>
        <mxCell id="AZCp2mnbqIVqRQhe4weJ-5" value="&lt;font style=&quot;font-size: 22px;&quot;&gt;Rn[8:1]&lt;/font&gt;" style="text;html=1;align=center;verticalAlign=middle;resizable=0;points=[];autosize=1;strokeColor=none;fillColor=none;fontFamily=Helvetica;fontSize=12;fontColor=default;allowArrows=0;connectable=0;" vertex="1" parent="1">
          <mxGeometry x="-160" y="800" width="90" height="40" as="geometry" />
        </mxCell>
      </root>
    </mxGraphModel>
  </diagram>
</mxfile>
